<?xml version="1.0" encoding="utf-8"?><svg width="30" height="31" fill="none" xmlns="http://www.w3.org/2000/svg" viewBox="0 0 30 31"><rect x="8.034" y="11.382" width="3.928" height="18.119" rx="1.964" stroke="#fff" stroke-width="1.3"/><rect x="16.548" y="11.382" width="3.928" height="18.119" rx="1.964" stroke="#fff" stroke-width="1.3"/><rect x="12.291" y="11.382" width="3.928" height="18.119" rx="1.964" stroke="#fff" stroke-width="1.3"/><rect x="20.805" y="11.382" width="3.928" height="18.119" rx="1.964" stroke="#fff" stroke-width="1.3"/><rect x="3.974" y="11.231" width="3.928" height="18.119" rx="1.964" stroke="#fff" stroke-width="1.3"/><path d="M1.248 15.152h2.596M25.048 15.152h2.26v-1.61M10.828.726c.448.43 1.138 1.215.128 2.657-.568.811-1.3 1.216-1.154 2.6.077.73.737 1.702 1.026 1.955M13.74.726c.45.43 1.139 1.215.13 2.657-.569.811-1.3 1.216-1.155 2.6.077.73.737 1.702 1.026 1.955M16.654.726c.448.43 1.138 1.215.128 2.657-.567.811-1.3 1.216-1.154 2.6.077.73.737 1.702 1.026 1.955M19.567.726c.448.43 1.138 1.215.128 2.657-.567.811-1.3 1.216-1.154 2.6.077.73.737 1.702 1.026 1.955" stroke="#fff" stroke-width="1.3" stroke-linecap="round"/></svg>