<?xml version="1.0" encoding="utf-8"?><svg width="31" height="30" fill="none" xmlns="http://www.w3.org/2000/svg" viewBox="0 0 31 30"><path d="M7.5 2h-1v1h1V2zM9.5 2h-1v1h1V2zM11.5 2h-1v1h1V2zM1 30h15.5a.5.5 0 00.354-.854l-15.5-15.5A.5.5 0 00.5 14v15.5a.5.5 0 00.5.5zm.5-14.793L15.293 29H1.5V15.207z" fill="#fff"/><path d="M9.354 26.146l-5-5a.5.5 0 00-.854.354v5a.5.5 0 00.5.5h5a.5.5 0 00.354-.854zM4.5 26v-3.293L7.793 26H4.5zM29.939 4.268a1.914 1.914 0 10-2.707-2.707l-.75.75A2.496 2.496 0 0024 0H7a2.503 2.503 0 00-2.5 2.5v13h1v-13A1.5 1.5 0 017 1h17a1.5 1.5 0 011.5 1.5v.793L20.793 8h-3.675a5.498 5.498 0 10-5.618 7.475V17.5a.5.5 0 00.5.5h11a.5.5 0 00.5-.5v-6.793l2-2V19H14a.5.5 0 00-.5.5v4a.5.5 0 00.5.5h11.5v.5A1.5 1.5 0 0124 26h-8v1h8a2.503 2.503 0 002.5-2.5V24H30a.5.5 0 00.5-.5v-4a.5.5 0 00-.5-.5h-3.5V7.707l3.439-3.439zm-2-2a.914.914 0 111.293 1.293L29 3.793 27.707 2.5l.232-.232zM16.5 10a4.505 4.505 0 01-4 4.47V9h3.884c.076.328.115.663.116 1zm-5-1.5v5.97A4.5 4.5 0 1116.025 8H12a.5.5 0 00-.5.5zm11 8.5h-10v-1.525A5.477 5.477 0 0017.404 9h2.389l-1.146 1.146a.495.495 0 00-.137.256l-.5 2.5a.5.5 0 00.59.588l2.5-.5a.495.495 0 00.255-.136l1.145-1.147V17zm-3.193-5.486l.679.679-.85.17.171-.849zM27.5 20v1h1v-1h1v3h-15v-3h1v1h1v-1h1v1h1v-1h1v1h1v-1h1v1h1v-1h1v1h1v-1h1v1h1v-1h1zM21 11.793L19.707 10.5 27 3.207 28.293 4.5 21 11.793z" fill="#fff"/></svg>