<?xml version="1.0" encoding="utf-8"?><svg width="30" height="30" fill="none" xmlns="http://www.w3.org/2000/svg" viewBox="0 0 30 30"><path d="M24.142 12.384h-2.006v-2.26a.568.568 0 00.342-.52V6.51a.657.657 0 00.592-.65v-.201h2.87v.967h.937V3.753h-.938v.967H23.07v-.154a.662.662 0 00-.66-.661h-.273V0H5.052v3.905H4.78a.662.662 0 00-.661.66v.155H1.25v-.967H.313v2.872h.937v-.967H4.12v.201c0 .338.26.614.59.65v3.096c0 .234.142.435.343.521v6.31c0 2 1.628 3.628 3.628 3.628s3.628-1.628 3.628-3.628v-.934h2.571v.932c0 2.102 1.831 3.886 4.1 3.598 1.8-.228 3.157-1.82 3.157-3.705v-.755h1.453a2.914 2.914 0 012.91 2.91 2.914 2.914 0 01-2.91 2.912H15.45v-.924h-1.424v-.753h1.209v-.938H11.88v.938h1.209v.753h-1.464v.924h-.375A1.31 1.31 0 009.944 22.7v1.454c0 .75.516 1.378 1.211 1.559l-.056.073c-.306.4-1.305 1.765-1.305 2.535a1.68 1.68 0 003.36 0c0-.77-1.003-2.136-1.31-2.536l-.028-.035a1.621 1.621 0 001.292-1.128h10.518a6.068 6.068 0 006.061-6.06v-.633a5.552 5.552 0 00-5.545-5.546zM5.056 4.842h7.247v.736H5.056v-.736zm6.657 1.674v2.717H5.647V6.516h6.066zm.595 3.61a.568.568 0 00.342-.521V6.509a.657.657 0 00.59-.65v-.201h.708v.201c0 .338.26.613.59.65v3.096c0 .233.14.434.341.521v2.329h-2.57v-2.33zm9.825-4.548h-7.247v-.736h7.247v.736zm-6.658.938h6.065v2.718h-6.065V6.516zM5.989.937H21.2v2.968h-6.59a.662.662 0 00-.66.66v.155h-.708v-.154a.662.662 0 00-.661-.661H5.99V.938zm5.382 15.499a2.693 2.693 0 01-2.69 2.69 2.693 2.693 0 01-2.691-2.69v-6.264h5.38v6.264zm.937-1.872v-1.172h2.571v1.172h-2.57zm-.091 13.758a.744.744 0 01-1.486 0c0-.235.34-.855.741-1.448.404.593.745 1.213.745 1.448zm16.533-9.76a5.13 5.13 0 01-5.124 5.124H12.24v.469a.68.68 0 01-1.359 0V22.7a.37.37 0 01.37-.37h1.313v-.923h1.95v.923h9.075a3.853 3.853 0 003.848-3.848 3.853 3.853 0 00-3.848-3.849h-2.39v1.693c0 1.413-1.006 2.606-2.338 2.775a2.69 2.69 0 01-3.044-2.668V10.172h5.381v3.15h2.944a4.613 4.613 0 014.608 4.608v.632z" fill="#fff"/></svg>