<?xml version="1.0" encoding="utf-8"?><svg width="31" height="30" fill="none" xmlns="http://www.w3.org/2000/svg" viewBox="0 0 31 30"><path d="M29.538 5.809h-1.452v-.968h.484a.484.484 0 00.484-.484V2.42a.484.484 0 00-.484-.484h-.484V.484A.484.484 0 0027.602 0h-4.84a.484.484 0 00-.485.484v1.452h-.484a.484.484 0 00-.484.484v1.937c0 .267.217.484.484.484h.484v.968h-1.452a.484.484 0 00-.484.484V8.23c0 .268.217.485.484.485h1.452v5.809a1.938 1.938 0 01-1.936 1.936 1.938 1.938 0 01-1.936-1.936V7.745C18.405 3.475 14.93 0 10.659 0 6.39 0 2.914 3.475 2.914 7.745v5.81H1.462a.484.484 0 00-.484.483v1.937c0 .267.216.484.484.484h1.452v.968H2.43a.484.484 0 00-.484.484v1.936c0 .268.217.484.484.484h.484v1.453c0 .267.217.484.484.484h4.84a.484.484 0 00.485-.484V20.33h.484a.484.484 0 00.484-.484v-1.936a.484.484 0 00-.484-.484h-.484v-.968h1.452a.484.484 0 00.484-.484v-1.937a.484.484 0 00-.484-.484H8.723V7.745c0-1.068.868-1.936 1.936-1.936s1.936.868 1.936 1.936v6.778c0 4.27 3.475 7.745 7.746 7.745 4.27 0 7.745-3.475 7.745-7.745v-5.81h1.453a.484.484 0 00.484-.484V6.293a.484.484 0 00-.485-.484zM23.245.969h3.873v.967h-3.873V.968zm-.968 1.936h5.81v.968h-5.81v-.969zm.968 1.936h3.873v.968h-3.873v-.968zM7.755 21.3H3.882v-.969h3.873v.969zm.968-1.937h-5.81v-.968h5.81v.968zm-.968-1.936H3.882v-.968h3.873v.968zm1.936-1.936H1.946v-.968H9.69v.968zm17.427-.968a6.785 6.785 0 01-6.777 6.777 6.785 6.785 0 01-6.777-6.777V7.745a2.907 2.907 0 00-2.905-2.904 2.907 2.907 0 00-2.904 2.904v5.81H3.882v-5.81A6.785 6.785 0 0110.659.968a6.785 6.785 0 016.777 6.777v6.778a2.907 2.907 0 002.905 2.904 2.907 2.907 0 002.904-2.904v-5.81h3.873v5.81zm1.936-6.778H21.31v-.968h7.745v.968zM6.221 23.438c-.18-.27-.626-.27-.805 0l-1.449 2.173a3.384 3.384 0 00-.57 1.885c.001 1.281.96 2.376 2.185 2.493a2.43 2.43 0 001.865-.618c.503-.458.792-1.111.792-1.791v-.09c0-.67-.197-1.32-.57-1.879l-1.448-2.173zm1.05 4.142a1.456 1.456 0 01-1.596 1.445c-.734-.07-1.309-.742-1.309-1.534 0-.48.141-.944.407-1.343l1.045-1.568 1.046 1.568c.266.399.407.863.407 1.343v.088z" fill="#fff"/></svg>