<?xml version="1.0" encoding="utf-8"?><svg viewBox="0 0 31 31" xmlns="http://www.w3.org/2000/svg" xmlns:xlink="http://www.w3.org/1999/xlink"><style>:root>svg{display:none}:root>svg:target{display:block}</style><svg fill="none" viewBox="0 0 24 24" id="arrow-down" xmlns="http://www.w3.org/2000/svg"><path d="M19 9l-7 7-7-7" stroke="#4F4F4F" stroke-width="1.8" stroke-linecap="round" stroke-linejoin="round"/></svg><svg fill="none" viewBox="0 0 24 24" id="arrow-right-dark" xmlns="http://www.w3.org/2000/svg"><path d="M9 5l7 7-7 7" stroke="#000" stroke-width="1.8" stroke-linecap="round" stroke-linejoin="round"/></svg><svg fill="none" viewBox="0 0 24 24" id="arrow-right-white" xmlns="http://www.w3.org/2000/svg"><path d="M9 5l7 7-7 7" stroke="#fff" stroke-width="1.8" stroke-linecap="round" stroke-linejoin="round"/></svg><svg fill="none" viewBox="0 0 24 24" id="arrow-up" xmlns="http://www.w3.org/2000/svg"><path d="M5 15l7-7 7 7" stroke="#fff" stroke-width="1.8" stroke-linecap="round" stroke-linejoin="round"/></svg><svg fill="none" viewBox="0 0 30 31" id="battery" xmlns="http://www.w3.org/2000/svg"><rect x="8.034" y="11.382" width="3.928" height="18.119" rx="1.964" stroke="#fff" stroke-width="1.3"/><rect x="16.548" y="11.382" width="3.928" height="18.119" rx="1.964" stroke="#fff" stroke-width="1.3"/><rect x="12.291" y="11.382" width="3.928" height="18.119" rx="1.964" stroke="#fff" stroke-width="1.3"/><rect x="20.805" y="11.382" width="3.928" height="18.119" rx="1.964" stroke="#fff" stroke-width="1.3"/><rect x="3.974" y="11.231" width="3.928" height="18.119" rx="1.964" stroke="#fff" stroke-width="1.3"/><path d="M1.248 15.152h2.596M25.048 15.152h2.26v-1.61M10.828.726c.448.43 1.138 1.215.128 2.657-.568.811-1.3 1.216-1.154 2.6.077.73.737 1.702 1.026 1.955M13.74.726c.45.43 1.139 1.215.13 2.657-.569.811-1.3 1.216-1.155 2.6.077.73.737 1.702 1.026 1.955M16.654.726c.448.43 1.138 1.215.128 2.657-.567.811-1.3 1.216-1.154 2.6.077.73.737 1.702 1.026 1.955M19.567.726c.448.43 1.138 1.215.128 2.657-.567.811-1.3 1.216-1.154 2.6.077.73.737 1.702 1.026 1.955" stroke="#fff" stroke-width="1.3" stroke-linecap="round"/></svg><svg fill="none" viewBox="0 0 30 31" id="clock" xmlns="http://www.w3.org/2000/svg"><circle cx="15" cy="15.25" stroke="#41BFE9" stroke-width="1.8" r="12.5"/><path d="M15 8.375v6.875L18.75 19" stroke="#41BFE9" stroke-width="1.8" stroke-linecap="round" stroke-linejoin="round"/></svg><svg fill="none" viewBox="0 0 22 22" id="clock-white" xmlns="http://www.w3.org/2000/svg"><circle cx="11" cy="11" stroke="#fff" stroke-width="1.8" r="9.167"/><path d="M11 5.958V11l2.75 2.75" stroke="#fff" stroke-width="1.8" stroke-linecap="round" stroke-linejoin="round"/></svg><svg fill="none" viewBox="0 0 31 30" id="drawing" xmlns="http://www.w3.org/2000/svg"><path d="M7.5 2h-1v1h1V2zM9.5 2h-1v1h1V2zM11.5 2h-1v1h1V2zM1 30h15.5a.5.5 0 00.354-.854l-15.5-15.5A.5.5 0 00.5 14v15.5a.5.5 0 00.5.5zm.5-14.793L15.293 29H1.5V15.207z" fill="#fff"/><path d="M9.354 26.146l-5-5a.5.5 0 00-.854.354v5a.5.5 0 00.5.5h5a.5.5 0 00.354-.854zM4.5 26v-3.293L7.793 26H4.5zM29.939 4.268a1.914 1.914 0 10-2.707-2.707l-.75.75A2.496 2.496 0 0024 0H7a2.503 2.503 0 00-2.5 2.5v13h1v-13A1.5 1.5 0 017 1h17a1.5 1.5 0 011.5 1.5v.793L20.793 8h-3.675a5.498 5.498 0 10-5.618 7.475V17.5a.5.5 0 00.5.5h11a.5.5 0 00.5-.5v-6.793l2-2V19H14a.5.5 0 00-.5.5v4a.5.5 0 00.5.5h11.5v.5A1.5 1.5 0 0124 26h-8v1h8a2.503 2.503 0 002.5-2.5V24H30a.5.5 0 00.5-.5v-4a.5.5 0 00-.5-.5h-3.5V7.707l3.439-3.439zm-2-2a.914.914 0 111.293 1.293L29 3.793 27.707 2.5l.232-.232zM16.5 10a4.505 4.505 0 01-4 4.47V9h3.884c.076.328.115.663.116 1zm-5-1.5v5.97A4.5 4.5 0 1116.025 8H12a.5.5 0 00-.5.5zm11 8.5h-10v-1.525A5.477 5.477 0 0017.404 9h2.389l-1.146 1.146a.495.495 0 00-.137.256l-.5 2.5a.5.5 0 00.59.588l2.5-.5a.495.495 0 00.255-.136l1.145-1.147V17zm-3.193-5.486l.679.679-.85.17.171-.849zM27.5 20v1h1v-1h1v3h-15v-3h1v1h1v-1h1v1h1v-1h1v1h1v-1h1v1h1v-1h1v1h1v-1h1v1h1v-1h1zM21 11.793L19.707 10.5 27 3.207 28.293 4.5 21 11.793z" fill="#fff"/></svg><svg fill="none" viewBox="0 0 30 30" id="filter" xmlns="http://www.w3.org/2000/svg"><path d="M24.142 12.384h-2.006v-2.26a.568.568 0 00.342-.52V6.51a.657.657 0 00.592-.65v-.201h2.87v.967h.937V3.753h-.938v.967H23.07v-.154a.662.662 0 00-.66-.661h-.273V0H5.052v3.905H4.78a.662.662 0 00-.661.66v.155H1.25v-.967H.313v2.872h.937v-.967H4.12v.201c0 .338.26.614.59.65v3.096c0 .234.142.435.343.521v6.31c0 2 1.628 3.628 3.628 3.628s3.628-1.628 3.628-3.628v-.934h2.571v.932c0 2.102 1.831 3.886 4.1 3.598 1.8-.228 3.157-1.82 3.157-3.705v-.755h1.453a2.914 2.914 0 012.91 2.91 2.914 2.914 0 01-2.91 2.912H15.45v-.924h-1.424v-.753h1.209v-.938H11.88v.938h1.209v.753h-1.464v.924h-.375A1.31 1.31 0 009.944 22.7v1.454c0 .75.516 1.378 1.211 1.559l-.056.073c-.306.4-1.305 1.765-1.305 2.535a1.68 1.68 0 003.36 0c0-.77-1.003-2.136-1.31-2.536l-.028-.035a1.621 1.621 0 001.292-1.128h10.518a6.068 6.068 0 006.061-6.06v-.633a5.552 5.552 0 00-5.545-5.546zM5.056 4.842h7.247v.736H5.056v-.736zm6.657 1.674v2.717H5.647V6.516h6.066zm.595 3.61a.568.568 0 00.342-.521V6.509a.657.657 0 00.59-.65v-.201h.708v.201c0 .338.26.613.59.65v3.096c0 .233.14.434.341.521v2.329h-2.57v-2.33zm9.825-4.548h-7.247v-.736h7.247v.736zm-6.658.938h6.065v2.718h-6.065V6.516zM5.989.937H21.2v2.968h-6.59a.662.662 0 00-.66.66v.155h-.708v-.154a.662.662 0 00-.661-.661H5.99V.938zm5.382 15.499a2.693 2.693 0 01-2.69 2.69 2.693 2.693 0 01-2.691-2.69v-6.264h5.38v6.264zm.937-1.872v-1.172h2.571v1.172h-2.57zm-.091 13.758a.744.744 0 01-1.486 0c0-.235.34-.855.741-1.448.404.593.745 1.213.745 1.448zm16.533-9.76a5.13 5.13 0 01-5.124 5.124H12.24v.469a.68.68 0 01-1.359 0V22.7a.37.37 0 01.37-.37h1.313v-.923h1.95v.923h9.075a3.853 3.853 0 003.848-3.848 3.853 3.853 0 00-3.848-3.849h-2.39v1.693c0 1.413-1.006 2.606-2.338 2.775a2.69 2.69 0 01-3.044-2.668V10.172h5.381v3.15h2.944a4.613 4.613 0 014.608 4.608v.632z" fill="#fff"/></svg><svg fill="none" viewBox="0 0 24 24" id="location" xmlns="http://www.w3.org/2000/svg"><path d="M19 10c0 4.956-4.776 9.23-6.438 10.567a.887.887 0 01-1.124 0C9.776 19.23 5 14.956 5 10a7 7 0 0114 0z" stroke="#F2F2F2" stroke-width="1.8"/><circle cx="12" cy="10" r="3" stroke="#F2F2F2" stroke-width="1.8"/></svg><svg fill="none" viewBox="0 0 31 30" id="pipes" xmlns="http://www.w3.org/2000/svg"><path d="M29.538 5.809h-1.452v-.968h.484a.484.484 0 00.484-.484V2.42a.484.484 0 00-.484-.484h-.484V.484A.484.484 0 0027.602 0h-4.84a.484.484 0 00-.485.484v1.452h-.484a.484.484 0 00-.484.484v1.937c0 .267.217.484.484.484h.484v.968h-1.452a.484.484 0 00-.484.484V8.23c0 .268.217.485.484.485h1.452v5.809a1.938 1.938 0 01-1.936 1.936 1.938 1.938 0 01-1.936-1.936V7.745C18.405 3.475 14.93 0 10.659 0 6.39 0 2.914 3.475 2.914 7.745v5.81H1.462a.484.484 0 00-.484.483v1.937c0 .267.216.484.484.484h1.452v.968H2.43a.484.484 0 00-.484.484v1.936c0 .268.217.484.484.484h.484v1.453c0 .267.217.484.484.484h4.84a.484.484 0 00.485-.484V20.33h.484a.484.484 0 00.484-.484v-1.936a.484.484 0 00-.484-.484h-.484v-.968h1.452a.484.484 0 00.484-.484v-1.937a.484.484 0 00-.484-.484H8.723V7.745c0-1.068.868-1.936 1.936-1.936s1.936.868 1.936 1.936v6.778c0 4.27 3.475 7.745 7.746 7.745 4.27 0 7.745-3.475 7.745-7.745v-5.81h1.453a.484.484 0 00.484-.484V6.293a.484.484 0 00-.485-.484zM23.245.969h3.873v.967h-3.873V.968zm-.968 1.936h5.81v.968h-5.81v-.969zm.968 1.936h3.873v.968h-3.873v-.968zM7.755 21.3H3.882v-.969h3.873v.969zm.968-1.937h-5.81v-.968h5.81v.968zm-.968-1.936H3.882v-.968h3.873v.968zm1.936-1.936H1.946v-.968H9.69v.968zm17.427-.968a6.785 6.785 0 01-6.777 6.777 6.785 6.785 0 01-6.777-6.777V7.745a2.907 2.907 0 00-2.905-2.904 2.907 2.907 0 00-2.904 2.904v5.81H3.882v-5.81A6.785 6.785 0 0110.659.968a6.785 6.785 0 016.777 6.777v6.778a2.907 2.907 0 002.905 2.904 2.907 2.907 0 002.904-2.904v-5.81h3.873v5.81zm1.936-6.778H21.31v-.968h7.745v.968zM6.221 23.438c-.18-.27-.626-.27-.805 0l-1.449 2.173a3.384 3.384 0 00-.57 1.885c.001 1.281.96 2.376 2.185 2.493a2.43 2.43 0 001.865-.618c.503-.458.792-1.111.792-1.791v-.09c0-.67-.197-1.32-.57-1.879l-1.448-2.173zm1.05 4.142a1.456 1.456 0 01-1.596 1.445c-.734-.07-1.309-.742-1.309-1.534 0-.48.141-.944.407-1.343l1.045-1.568 1.046 1.568c.266.399.407.863.407 1.343v.088z" fill="#fff"/></svg></svg>